<?xml version="1.0" encoding="UTF-8"?>
<svg xmlns="http://www.w3.org/2000/svg" viewBox="-0 -0 108 108">
    <path d="M 10.8 0 h 86.4 a 10.8 10.8 0 0 1 10.8 10.8 v 86.4 a 10.8 10.8 0 0 1 -10.8 10.8 h -86.4 a 10.8 10.8 0 0 1 -10.8 -10.8 v -86.4 a 10.8 10.8 0 0 1 10.8 -10.8 Z" fill="#41BBD9" fill-opacity="1" stroke-width="0.0"/>
    <path fill-opacity="0" d="M 54 54 h 0 v 0 h -0 v -0 Z" stroke-width="0.0"/>
    <path fill="#FFE082" stroke-linecap="round" stroke="#FFE082" d="M 26.8289 74.1011 l 9 -1.49869 l 30.2493 0.125984 l 0 -16.6877 l -37.8137 0.0603675 l 0 10.252 z" stroke-width="1.0" stroke-linejoin="round" fill-opacity="1"/>
    <path fill="#F48FB1" stroke-linecap="round" stroke="#F48FB1" d="M 81.2782 32.0407 l -9 1.49869 l -30.2493 -0.125984 l 0 16.6877 l 37.8137 -0.0603676 l 0 -10.252 z" stroke-width="1.0" stroke-linejoin="round" fill-opacity="1"/>
</svg>