<svg version="1.1" viewBox="0.0 0.0 96.0 96.0" fill="none" stroke="none" stroke-linecap="square" stroke-miterlimit="10" xmlns:xlink="http://www.w3.org/1999/xlink" xmlns="http://www.w3.org/2000/svg"><clipPath id="p.0"><path d="m0 0l96.0 0l0 96.0l-96.0 0l0 -96.0z" clip-rule="nonzero"/></clipPath><g clip-path="url(#p.0)"><path fill="#000000" fill-opacity="0.0" d="m0 0l96.0 0l0 96.0l-96.0 0z" fill-rule="evenodd"/><path fill="#41bbd9" d="m0 10.58784l0 0c0 -5.8475027 4.7403374 -10.58784 10.58784 -10.58784l74.824326 0c2.8080673 0 5.501129 1.1155014 7.4867325 3.1011066c1.9856033 1.9856052 3.1011047 4.6786637 3.1011047 7.4867334l0 74.824326c0 5.847496 -4.740341 10.587837 -10.587837 10.587837l-74.824326 0c-5.8475027 0 -10.58784 -4.740341 -10.58784 -10.587837z" fill-rule="evenodd"/><path fill="#f48fb1" d="m39.743385 28.193642l35.27559 0l0 14.173229l-35.27559 0z" fill-rule="evenodd"/><path stroke="#f48fb1" stroke-width="3.0" stroke-linejoin="round" stroke-linecap="butt" d="m39.743385 28.193642l35.27559 0l0 14.173229l-35.27559 0z" fill-rule="evenodd"/><path fill="#ffe082" d="m20.621284 48.15191l35.77953 0l0 14.488186l-35.77953 0z" fill-rule="evenodd"/><path stroke="#ffe082" stroke-width="3.0" stroke-linejoin="round" stroke-linecap="butt" d="m20.621284 48.15191l35.77953 0l0 14.488186l-35.77953 0z" fill-rule="evenodd"/><path fill="#ffe082" d="m27.334185 62.54561l-8.48819 2.0l1.968504 -8.519684z" fill-rule="evenodd"/><path stroke="#ffe082" stroke-width="3.0" stroke-linejoin="round" stroke-linecap="butt" d="m27.334185 62.54561l-8.48819 2.0l1.968504 -8.519684z" fill-rule="evenodd"/><path fill="#f48fb1" d="m68.792816 42.51168l8.3937 1.9370079l-1.9370041 -8.330711z" fill-rule="evenodd"/><path stroke="#f48fb1" stroke-width="3.0" stroke-linejoin="round" stroke-linecap="butt" d="m68.792816 42.51168l8.3937 1.9370079l-1.9370041 -8.330711z" fill-rule="evenodd"/></g></svg>